<?xml version="1.0" standalone="no"?>
<!DOCTYPE svg PUBLIC "-//W3C//DTD SVG 20010904//EN"
 "http://www.w3.org/TR/2001/REC-SVG-20010904/DTD/svg10.dtd">
<svg version="1.0" xmlns="http://www.w3.org/2000/svg"
 width="1024.000000pt" height="1024.000000pt" viewBox="0 0 1024.000000 1024.000000"
 preserveAspectRatio="xMidYMid meet">

<g transform="translate(0.000000,1024.000000) scale(0.100000,-0.100000)"
fill="#000000" stroke="none">
<path d="M0 5120 l0 -5120 5120 0 5120 0 0 5120 0 5120 -5120 0 -5120 0 0
-5120z m5391 3270 c802 -80 1525 -443 2172 -1091 103 -104 147 -155 147 -171
0 -29 -805 -838 -834 -838 -10 0 -77 58 -150 128 -384 374 -848 646 -1252 733
-148 32 -388 37 -514 11 -264 -55 -470 -193 -561 -377 -104 -209 -36 -406 194
-564 126 -86 398 -192 927 -361 430 -137 612 -207 860 -331 702 -353 1113
-820 1242 -1413 20 -89 22 -130 23 -346 0 -263 -8 -328 -62 -515 -178 -617
-724 -1146 -1420 -1375 -430 -141 -928 -175 -1458 -99 -711 102 -1378 409
-1950 897 -138 119 -465 442 -465 461 0 9 190 206 422 438 315 315 429 423
446 423 16 0 61 -36 145 -117 355 -342 728 -600 1080 -747 546 -229 1021 -245
1373 -45 110 62 220 173 267 269 38 76 67 185 67 250 0 125 -66 281 -164 387
-155 167 -354 264 -971 473 -420 142 -546 192 -775 307 -216 108 -362 194
-515 304 -474 340 -755 771 -815 1253 -19 147 -8 393 23 526 95 404 336 762
697 1034 380 286 835 458 1325 499 95 8 401 6 496 -3z"/>
<path d="M4986 5694 c-141 -34 -302 -165 -365 -297 -155 -327 2 -692 343 -796
81 -25 232 -28 312 -7 195 52 357 223 399 421 19 88 19 151 0 240 -66 312
-381 514 -689 439z"/>
</g>
</svg>
